<svg width="46" height="60" viewBox="0 0 46 60" fill="none" xmlns="http://www.w3.org/2000/svg">
<path d="M45.0686 20.5638V8.51236L36.2009 0.00158691H35.8802H9.59523L1.00293 8.51964V28.4918L9.26958 36.8567H28.4785V45.4735H17.7136V39.1986L1.00293 39.199V51.2434L9.59523 59.7625H36.2019L45.0696 51.2504V31.2717L36.8038 22.9059H17.7149V14.2891H28.4799V20.5649L45.07 20.563L45.0686 20.5638Z" fill="white"/>
<path d="M29.6762 19.3725C30.4099 19.3725 43.1412 19.3705 43.8751 19.3705V9.02268C43.6416 8.79861 35.9455 1.41083 35.723 1.198H10.0902C9.86493 1.41832 2.42505 8.79376 2.19922 9.01959V28.0012C2.41893 28.2246 9.54513 35.4372 9.76854 35.6624H29.6739V46.6681H16.5185V40.3943C15.7834 40.3943 2.93335 40.3943 2.19922 40.3954V50.7453C2.42444 50.9699 9.8646 58.347 10.0874 58.568H35.7202C35.9417 58.3556 43.6385 50.9671 43.8727 50.7409V31.7641C43.653 31.5407 36.5259 24.3281 36.3025 24.1023H16.5182V13.0965H29.6737V19.3714L29.6762 19.3725Z" fill="#000E54"/>
</svg>
